<?xml version="1.0" encoding="UTF-8" standalone="no"?><!DOCTYPE svg PUBLIC "-//W3C//DTD SVG 1.1//EN" "http://www.w3.org/Graphics/SVG/1.1/DTD/svg11.dtd"><svg width="100%" height="100%" viewBox="0 0 597 158" version="1.1" xmlns="http://www.w3.org/2000/svg" xmlns:xlink="http://www.w3.org/1999/xlink" xml:space="preserve" xmlns:serif="http://www.serif.com/" style="fill-rule:evenodd;clip-rule:evenodd;stroke-linejoin:round;stroke-miterlimit:2;"><rect id="wordmark-flat-white" x="0.462" y="0.974" width="595.579" height="156.932" style="fill:none;"/><g><path d="M207.154,19.366c-2.35,0.403 -4.155,0.774 -5.414,1.117l0,73.568c0,10.313 2.72,17.764 8.164,22.345c5.442,4.582 13.206,6.876 23.291,6.876c8.251,0 14.008,-1.376 17.275,-4.125c3.266,-2.751 4.898,-6.302 4.898,-10.658c0,-2.176 -0.373,-4.039 -1.117,-5.586c-0.747,-1.547 -1.633,-2.949 -2.664,-4.211c-1.376,0.459 -2.981,0.832 -4.813,1.118c-1.834,0.286 -3.609,0.429 -5.328,0.429c-3.438,0 -6.103,-0.629 -7.993,-1.891c-1.891,-1.26 -2.837,-3.378 -2.837,-6.36l0,-25.955l15.642,0c2.979,0 5.356,-0.887 7.133,-2.664c1.776,-1.775 2.665,-4.668 2.665,-8.68c0,-2.292 -0.317,-4.383 -0.946,-6.274c-0.631,-1.89 -1.289,-3.465 -1.976,-4.727l-22.518,0l0,-11.001c0,-5.728 -1.404,-9.48 -4.211,-11.258c-2.809,-1.775 -6.733,-2.665 -11.774,-2.665c-2.637,0 -5.13,0.202 -7.477,0.602Z" style="fill:#fff;fill-rule:nonzero;"/><path d="M321.543,59.501c-0.802,-0.457 -1.976,-0.915 -3.523,-1.374c-1.547,-0.457 -3.467,-0.688 -5.759,-0.688c-5.615,0 -9.826,1.576 -12.633,4.727c-2.809,3.153 -4.211,7.648 -4.211,13.493c0,6.647 1.402,11.43 4.211,14.352c2.807,2.923 6.387,4.383 10.743,4.383c4.697,0 8.422,-1.087 11.172,-3.265l0,-31.628Zm-10.656,-24.923c6.531,0 12.461,0.832 17.79,2.493c5.328,1.661 9.824,3.81 13.493,6.446c2.291,1.605 4.096,3.38 5.414,5.327c1.316,1.951 1.977,4.47 1.977,7.564l0,60.16c0,6.072 -1.147,11.315 -3.437,15.727c-2.294,4.411 -5.415,8.079 -9.369,11.001c-3.953,2.923 -8.594,5.072 -13.922,6.446c-5.329,1.375 -11.03,2.063 -17.103,2.063c-10.429,0 -18.623,-1.405 -24.58,-4.212c-5.96,-2.809 -8.938,-7.363 -8.938,-13.665c0,-2.637 0.542,-4.957 1.633,-6.961c1.088,-2.006 2.32,-3.523 3.695,-4.555c3.323,1.832 7.075,3.379 11.259,4.641c4.182,1.26 8.508,1.891 12.977,1.891c6.188,0 11.114,-1.032 14.783,-3.094c3.666,-2.063 5.5,-5.385 5.5,-9.97l0,-2.749c-4.7,2.062 -10.429,3.093 -17.188,3.093c-5.157,0 -10.056,-0.773 -14.697,-2.32c-4.641,-1.548 -8.709,-3.954 -12.204,-7.219c-3.497,-3.267 -6.303,-7.478 -8.422,-12.634c-2.122,-5.157 -3.18,-11.286 -3.18,-18.392c0,-6.988 1.117,-13.064 3.351,-18.22c2.235,-5.157 5.33,-9.424 9.282,-12.806c3.954,-3.378 8.651,-5.901 14.096,-7.562c5.441,-1.661 11.371,-2.493 17.79,-2.493" style="fill:#fff;fill-rule:nonzero;"/><path d="M397.343,120.521c-1.262,0.228 -3.123,0.543 -5.586,0.946c-2.465,0.4 -4.958,0.601 -7.477,0.601c-2.522,0 -4.786,-0.172 -6.79,-0.515c-2.006,-0.344 -3.695,-1.032 -5.07,-2.063c-1.376,-1.032 -2.437,-2.434 -3.18,-4.211c-0.747,-1.776 -1.117,-4.096 -1.117,-6.961l0,-99.695c1.259,-0.228 3.121,-0.542 5.586,-0.945c2.463,-0.401 4.955,-0.602 7.477,-0.602c2.519,0 4.783,0.172 6.79,0.516c2.003,0.343 3.695,1.031 5.07,2.062c1.375,1.032 2.433,2.436 3.18,4.212c0.744,1.777 1.117,4.098 1.117,6.961l0,99.694Z" style="fill:#fff;fill-rule:nonzero;"/><path d="M415.735,38.36c1.144,-0.345 2.949,-0.688 5.414,-1.032c2.463,-0.343 5.012,-0.516 7.65,-0.516c2.519,0 4.782,0.173 6.789,0.516c2.004,0.344 3.696,1.032 5.07,2.063c1.376,1.031 2.434,2.436 3.181,4.211c0.743,1.778 1.117,4.099 1.117,6.961l0,36.956c0,4.7 1.144,8.051 3.437,10.056c2.292,2.006 5.613,3.008 9.97,3.008c2.635,0 4.783,-0.229 6.446,-0.688c1.659,-0.457 2.949,-0.916 3.867,-1.375l0,-60.16c1.144,-0.345 2.949,-0.688 5.414,-1.032c2.463,-0.343 5.012,-0.516 7.65,-0.516c2.519,0 4.783,0.173 6.789,0.516c2.003,0.344 3.695,1.032 5.071,2.063c1.375,1.031 2.433,2.436 3.18,4.211c0.743,1.778 1.117,4.099 1.117,6.961l0,52.254c0,5.731 -2.406,10.028 -7.219,12.892c-4.013,2.521 -8.796,4.442 -14.353,5.758c-5.56,1.316 -11.602,1.977 -18.134,1.977c-6.188,0 -11.89,-0.688 -17.103,-2.064c-5.215,-1.374 -9.711,-3.493 -13.493,-6.359c-3.781,-2.863 -6.704,-6.559 -8.766,-11.087c-2.062,-4.525 -3.094,-9.996 -3.094,-16.415l0,-49.159Z" style="fill:#fff;fill-rule:nonzero;"/><path d="M6.048,7.678c-2.465,0.403 -4.326,0.717 -5.586,0.945l0,99.695c0,2.865 0.371,5.185 1.117,6.961c0.744,1.777 1.805,3.18 3.18,4.211c1.375,1.031 3.065,1.719 5.071,2.063c2.004,0.343 4.268,0.515 6.789,0.515c2.635,0 5.184,-0.172 7.649,-0.515c2.464,-0.344 4.268,-0.687 5.415,-1.032l0,-60.16c1.259,-0.8 2.922,-1.488 4.985,-2.063c2.062,-0.572 4.238,-0.859 6.531,-0.859c3.438,0 6.331,0.945 8.681,2.837c2.347,1.89 3.523,5.185 3.523,9.883l0,38.159c0,2.865 0.371,5.185 1.117,6.961c0.744,1.777 1.805,3.18 3.18,4.211c1.375,1.031 3.065,1.719 5.071,2.063c2.004,0.343 4.268,0.515 6.789,0.515c2.635,0 5.184,-0.172 7.65,-0.515c2.462,-0.344 4.267,-0.687 5.414,-1.032l0,-52.081c0,-11.23 -3.18,-19.682 -9.54,-25.353c-6.36,-5.673 -15.212,-8.509 -26.556,-8.509c-3.669,0 -7.021,0.373 -10.056,1.117c-3.037,0.747 -5.301,1.405 -6.789,1.977l0,-16.845c0,-2.863 -0.373,-5.184 -1.117,-6.961c-0.747,-1.776 -1.805,-3.18 -3.18,-4.212c-1.375,-1.031 -3.068,-1.719 -5.071,-2.062c-2.006,-0.344 -4.271,-0.516 -6.79,-0.516c-2.521,0 -5.014,0.201 -7.477,0.602Z" style="fill:#fff;fill-rule:nonzero;"/><path d="M555.133,55.892c-2.75,0 -5.13,0.459 -7.134,1.375c-2.006,0.918 -3.639,2.092 -4.898,3.523c-1.262,1.435 -2.208,3.039 -2.837,4.813c-0.631,1.779 -1.003,3.584 -1.117,5.415l29.392,-4.813c-0.343,-2.29 -1.605,-4.582 -3.781,-6.875c-2.177,-2.291 -5.387,-3.438 -9.625,-3.438m4.812,67.552c-6.762,0 -13.036,-0.946 -18.821,-2.837c-5.788,-1.89 -10.829,-4.727 -15.126,-8.508c-4.298,-3.782 -7.678,-8.535 -10.141,-14.267c-2.466,-5.728 -3.695,-12.431 -3.695,-20.111c0,-7.562 1.229,-14.065 3.695,-19.509c2.463,-5.441 5.699,-9.91 9.711,-13.406c4.011,-3.495 8.594,-6.074 13.751,-7.735c5.156,-1.661 10.426,-2.493 15.814,-2.493c6.072,0 11.603,0.918 16.587,2.75c4.984,1.834 9.281,4.357 12.891,7.563c3.611,3.209 6.417,7.047 8.422,11.517c2.005,4.468 3.008,9.341 3.008,14.61c0,3.897 -1.09,6.876 -3.265,8.938c-2.178,2.063 -5.216,3.381 -9.11,3.954l-42.456,6.359c1.26,3.782 3.838,6.618 7.735,8.509c3.894,1.891 8.364,2.835 13.407,2.835c4.697,0 9.137,-0.601 13.321,-1.804c4.182,-1.204 7.59,-2.605 10.228,-4.212c1.831,1.147 3.378,2.751 4.64,4.813c1.26,2.063 1.891,4.242 1.891,6.532c0,5.157 -2.407,8.997 -7.219,11.517c-3.669,1.95 -7.794,3.266 -12.376,3.953c-4.584,0.687 -8.881,1.032 -12.892,1.032" style="fill:#fff;fill-rule:nonzero;"/><g><path d="M122.426,45.849c-10.03,5.587 -20.363,14.796 -23.656,25.795c-0.056,0.189 -0.113,0.372 -0.169,0.549c-4.481,14.016 0.105,28.903 10.574,38.495c-2.928,-4.516 -4.629,-9.9 -4.629,-15.683c0,-25.632 32.377,-43.439 32.377,-43.439c0,0 -3.91,9.979 17.268,29.679c20.9,19.442 0.322,38.528 -15.639,42.11c1.04,0 28.055,-3.806 38.232,-16.125c0,0 16.646,-15.555 3.309,-36.428c0,0 -0.223,4.396 -7.075,5.722c-10.022,1.937 -18.43,-4.647 -19.381,-14.81c-0.342,-3.648 -0.521,-7.53 -0.521,-13.264c0.64,-0.422 5.756,-17.975 -27.525,-35.737l0.105,-0.115c-0.197,-0.028 -0.409,-0.04 -0.409,-0.04c11.498,18.393 5.912,28.405 -2.861,33.291Z" style="fill:#fff;fill-rule:nonzero;"/><path d="M128.639,14.704c0.266,0.18 1.086,0.741 1.233,0.843c0.273,0.19 2.679,1.917 3.391,2.456l2.445,1.918l0.962,0.794l2.078,1.807l1.694,1.579l0.771,0.754l1.647,1.711l1.928,2.196l1.793,2.309l1.351,1.977l1.237,2.092l1.228,2.516l0.632,1.605l0.641,2.109l0.429,2.227l0.141,2.061l0,0.017l-0.028,0.822c-0.136,4.294 0.357,14.979 0.383,15.25c0.446,4.763 2.756,8.912 6.117,11.775c0.448,0.382 1.887,1.404 2.137,1.559c0.5,0.309 2.618,1.34 3.173,1.542c2.776,1.013 5.851,1.315 8.983,0.71c2.998,-0.58 4.729,-1.763 5.728,-2.91c0.072,-0.082 0.139,-0.164 0.203,-0.245c0.449,-0.569 0.77,-1.104 0.893,-1.568c0.206,-0.78 0.259,-1.009 0.268,-1.069c9.169,17.226 1.61,28.35 -4.093,34.908c-10.403,11.964 -37.452,16.906 -37.452,16.906c9.883,0.52 18.726,-1.301 26.074,-3.809c18.708,-6.385 29.262,-25.058 23.73,-44.035c-3.269,-11.215 -17.977,-23.945 -17.977,-23.945c11.602,21.825 -3.478,20.552 -7.119,18.211c-0.11,-0.068 -0.679,-0.445 -0.78,-0.52c-3.155,-2.33 -2.805,-7.24 -3.121,-10.404c-0.26,-2.601 -0.211,-6.421 -0.26,-7.542c-1.561,-35.112 -29.784,-38.201 -33.403,-38.713c-0.136,-0.021 -0.272,-0.034 -0.409,-0.04c0.446,0.281 3.2,2.043 3.352,2.146Z" style="fill:#fff;fill-rule:nonzero;"/><path d="M140.372,118.413c26.789,-10.403 14.929,-29.424 14.929,-29.424c3.121,19.506 -14.929,29.424 -14.929,29.424Z" style="fill:#fff;fill-rule:nonzero;"/></g></g></svg>